# xmcd CD database file
#
# Track frame offsets:
#	150
#	17230
#	39865
#	57054
#	81989
#	106813
#	122237
#	140888
#	159070
#	174458
#	195047
#
# Disc length: 2915 seconds
#
# Revision: 0
# Processed by: cddbd v1.5.2PL0 Copyright (c) Steve Scherf et al.
# Submitted via: CDex 1.51
#
DISCID=810b610b
DTITLE=Keith Urban - Defying Gravity
DYEAR=2009
DGENRE=Country
TTITLE0=Kiss A Girl
TTITLE1=If Ever I Could Love
TTITLE2=Sweet Thing
TTITLE3='Till Summer Comes Around
TTITLE4=My Heart Is Open
TTITLE5=Hit The Grounf Runnin'
TTITLE6=Only You Can Love Me This Way
TTITLE7=Standing Right In Front Of You
TTITLE8=Why's It Feel So Long
TTITLE9=I'm In
TTITLE10=Thank You
EXTD=YEAR: 2009
EXTT0=
EXTT1=
EXTT2=
EXTT3=
EXTT4=
EXTT5=
EXTT6=
EXTT7=
EXTT8=
EXTT9=
EXTT10=
PLAYORDER=
